<?xml version="1.0" encoding="UTF-8"?>
<svg width="24px" height="24px" viewBox="0 0 24 24" version="1.1" xmlns="http://www.w3.org/2000/svg" xmlns:xlink="http://www.w3.org/1999/xlink">
    <!-- Generator: Sketch 46.2 (44496) - http://www.bohemiancoding.com/sketch -->
    <title>product / cruise / dark</title>
    <desc>Created with Sketch.</desc>
    <defs></defs>
    <g id="Icons" stroke="none" stroke-width="1" fill="none" fill-rule="evenodd">
        <g id="product-/-cruise-/-dark">
            <g id="cruise">
                <polygon id="Shape" points="0 0 24 0 24 24 0 24"></polygon>
                <path d="M20,21 C18.61,21 17.22,20.53 16,19.68 C13.56,21.39 10.44,21.39 8,19.68 C6.78,20.53 5.39,21 4,21 L2,21 L2,23 L4,23 C5.38,23 6.74,22.65 8,22.01 C10.52,23.3 13.48,23.3 16,22.01 C17.26,22.66 18.62,23 20,23 L22,23 L22,21 L20,21 Z M3.95,19 L4,19 C5.6,19 7.02,18.12 8,17 C8.98,18.12 10.4,19 12,19 C13.6,19 15.02,18.12 16,17 C16.98,18.12 18.4,19 20,19 L20.05,19 L21.94,12.32 C22.02,12.06 22,11.78 21.88,11.54 C21.76,11.3 21.54,11.12 21.28,11.04 L20,10.62 L20,6 C20,4.9 19.1,4 18,4 L15,4 L15,1 L9,1 L9,4 L6,4 C4.9,4 4,4.9 4,6 L4,10.62 L2.71,11.04 C2.45,11.12 2.23,11.3 2.11,11.54 C1.99,11.78 1.96,12.06 2.05,12.32 L3.95,19 Z M6,6 L18,6 L18,9.97 L12,8 L6,9.97 L6,6 Z" id="Shape" fill="#001833" fill-rule="nonzero"></path>
            </g>
        </g>
    </g>
</svg>