<?xml version="1.0" encoding="UTF-8"?>
<svg width="24px" height="24px" viewBox="0 0 24 24" version="1.1" xmlns="http://www.w3.org/2000/svg" xmlns:xlink="http://www.w3.org/1999/xlink">
    <!-- Generator: Sketch 46.2 (44496) - http://www.bohemiancoding.com/sketch -->
    <title>communication / chat / dark</title>
    <desc>Created with Sketch.</desc>
    <defs></defs>
    <g id="Icons" stroke="none" stroke-width="1" fill="none" fill-rule="evenodd">
        <g id="communication-/-chat-/-dark">
            <g id="chat">
                <polygon id="Shape" points="0 0 24 0 24 24 0 24"></polygon>
                <path d="M20,2 L4,2 C2.9,2 2.01,2.9 2.01,4 L2,22 L6,18 L20,18 C21.1,18 22,17.1 22,16 L22,4 C22,2.9 21.1,2 20,2 Z M6,9 L18,9 L18,11 L6,11 L6,9 Z M14,14 L6,14 L6,12 L14,12 L14,14 Z M18,8 L6,8 L6,6 L18,6 L18,8 Z" id="Shape" fill="#001833" fill-rule="nonzero"></path>
            </g>
        </g>
    </g>
</svg>