<?xml version="1.0" encoding="UTF-8"?>
<svg width="24px" height="24px" viewBox="0 0 24 24" version="1.1" xmlns="http://www.w3.org/2000/svg" xmlns:xlink="http://www.w3.org/1999/xlink">
    <!-- Generator: Sketch 46.2 (44496) - http://www.bohemiancoding.com/sketch -->
    <title>amenitiy / accessible / dark</title>
    <desc>Created with Sketch.</desc>
    <defs></defs>
    <g id="Icons" stroke="none" stroke-width="1" fill="none" fill-rule="evenodd">
        <g id="amenitiy-/-accessible-/-dark">
            <g id="accessible">
                <polygon id="Shape" points="0 0 24 0 24 24 0 24"></polygon>
                <path d="M19,13 L19,11 C17.46,11.02 15.91,10.25 14.93,9.17 L13.64,7.74 C13.47,7.55 13.26,7.4 13.03,7.29 C13.02,7.29 13.02,7.28 13.01,7.28 L13,7.28 C12.65,7.08 12.25,6.98 11.81,7.02 C10.76,7.11 10,8.04 10,9.09 L10,15 C10,16.1 10.9,17 12,17 L17,17 L17,22 L19,22 L19,16.5 C19,15.4 18.1,14.5 17,14.5 L14,14.5 L14,11.05 C15.29,12.12 17.25,12.99 19,13 Z M12.83,18 L14.9,18 C14.44,20.28 12.42,22 10,22 C7.24,22 5,19.76 5,17 C5,14.58 6.72,12.56 9,12.1 L9,14.17 C7.84,14.59 7,15.69 7,17 C7,18.66 8.34,20 10,20 C11.31,20 12.42,19.16 12.83,18 Z M12,6 C10.8954305,6 10,5.1045695 10,4 C10,2.8954305 10.8954305,2 12,2 C13.1045695,2 14,2.8954305 14,4 C14,5.1045695 13.1045695,6 12,6 Z" id="Shape" fill="#001833" fill-rule="nonzero"></path>
            </g>
        </g>
    </g>
</svg>