<?xml version="1.0" encoding="UTF-8"?>
<svg width="24px" height="24px" viewBox="0 0 24 24" version="1.1" xmlns="http://www.w3.org/2000/svg" xmlns:xlink="http://www.w3.org/1999/xlink">
    <!-- Generator: Sketch 46.2 (44496) - http://www.bohemiancoding.com/sketch -->
    <title>amenitiy / automatic / dark</title>
    <desc>Created with Sketch.</desc>
    <defs></defs>
    <g id="Icons" stroke="none" stroke-width="1" fill="none" fill-rule="evenodd">
        <g id="amenitiy-/-automatic-/-dark">
            <g id="automatic">
                <polygon id="Shape" points="0 0 24 0 24 24 0 24"></polygon>
                <path d="M12,2 C6.48,2 2,6.48 2,12 C2,17.52 6.48,22 12,22 C17.52,22 22,17.52 22,12 C22,6.48 17.52,2 12,2 Z M12,20 C7.58,20 4,16.42 4,12 C4,7.58 7.58,4 12,4 C16.42,4 20,7.58 20,12 C20,16.42 16.42,20 12,20 Z M14.2655164,15.3333639 L16.036,15.3333639 L12.903606,8 L11.1959798,8 L8.01120466,15.3333639 L9.71883082,15.3333639 L10.2950237,13.908596 L13.6893236,13.908596 L14.2655164,15.3333639 Z M10.8397879,12.5781143 L12.0026499,9.72857863 L13.1550356,12.5781143 L10.8397879,12.5781143 Z" id="Shape" fill="#001833" fill-rule="nonzero"></path>
            </g>
        </g>
    </g>
</svg>