<?xml version="1.0" encoding="UTF-8"?>
<svg width="24px" height="24px" viewBox="0 0 24 24" version="1.1" xmlns="http://www.w3.org/2000/svg" xmlns:xlink="http://www.w3.org/1999/xlink">
    <!-- Generator: Sketch 46.2 (44496) - http://www.bohemiancoding.com/sketch -->
    <title>amenitiy / car door / dark</title>
    <desc>Created with Sketch.</desc>
    <defs></defs>
    <g id="Icons" stroke="none" stroke-width="1" fill="none" fill-rule="evenodd">
        <g id="amenitiy-/-car-door-/-dark">
            <g id="car-door">
                <polygon id="Shape" points="0 0 24 0 24 24 0 24"></polygon>
                <path d="M18,2 L11.0723495,2 L11.0723495,2 C10.4025517,2 9.77722056,2.33528678 9.40654234,2.8931637 L4.35285138,10.4990531 L4.35285138,10.4990531 C4.13575255,10.8257905 4.0195352,11.2091588 4.01866346,11.601445 L4,20 C4,21.1 4.9,22 6,22 L18,22 C19.1,22 20,21.1 20,20 L20,4 C20,2.9 19.1,2 18,2 Z M18,11 L6.69868021,11 L11.4358447,4 L18,4 L18,11 Z" id="Shape" fill="#001833" fill-rule="nonzero"></path>
            </g>
        </g>
    </g>
</svg>