<?xml version="1.0" encoding="UTF-8"?>
<svg width="24px" height="24px" viewBox="0 0 24 24" version="1.1" xmlns="http://www.w3.org/2000/svg" xmlns:xlink="http://www.w3.org/1999/xlink">
    <!-- Generator: Sketch 46.2 (44496) - http://www.bohemiancoding.com/sketch -->
    <title>amenitiy / fitness / dark</title>
    <desc>Created with Sketch.</desc>
    <defs></defs>
    <g id="Icons" stroke="none" stroke-width="1" fill="none" fill-rule="evenodd">
        <g id="amenitiy-/-fitness-/-dark">
            <g id="fitness">
                <polygon id="Shape" points="0 0 24 0 24 24 0 24"></polygon>
                <polygon id="Shape" fill="#001833" fill-rule="nonzero" points="20.57 14.86 22 13.43 20.57 12 17 15.57 8.43 7 12 3.43 10.57 2 9.14 3.43 7.71 2 5.57 4.14 4.14 2.71 2.71 4.14 4.14 5.57 2 7.71 3.43 9.14 2 10.57 3.43 12 7 8.43 15.57 17 12 20.57 13.43 22 14.86 20.57 16.29 22 18.43 19.86 19.86 21.29 21.29 19.86 19.86 18.43 22 16.29"></polygon>
            </g>
        </g>
    </g>
</svg>