<?xml version="1.0" encoding="UTF-8"?>
<svg width="24px" height="24px" viewBox="0 0 24 24" version="1.1" xmlns="http://www.w3.org/2000/svg" xmlns:xlink="http://www.w3.org/1999/xlink">
    <!-- Generator: Sketch 46.2 (44496) - http://www.bohemiancoding.com/sketch -->
    <title>amenitiy / manual / dark</title>
    <desc>Created with Sketch.</desc>
    <defs></defs>
    <g id="Icons" stroke="none" stroke-width="1" fill="none" fill-rule="evenodd">
        <g id="amenitiy-/-manual-/-dark">
            <g id="manual">
                <polygon id="Shape" points="0 0 24 0 24 24 0 24"></polygon>
                <path d="M12,2 C6.48,2 2,6.48 2,12 C2,17.52 6.48,22 12,22 C17.52,22 22,17.52 22,12 C22,6.48 17.52,2 12,2 Z M12,20 C7.58,20 4,16.42 4,12 C4,7.58 7.58,4 12,4 C16.42,4 20,7.58 20,12 C20,16.42 16.42,20 12,20 Z M7.44857143,8 L9.46,8 L11.9514286,12.9142857 L14.42,8 L16.42,8 L16.42,16 L14.7971429,16 L14.7971429,10.5942857 L12.5228571,15.1885714 L11.3571429,15.1885714 L9.07142857,10.5942857 L9.07142857,16 L7.44857143,16 L7.44857143,8 Z" id="Shape" fill="#001833" fill-rule="nonzero"></path>
            </g>
        </g>
    </g>
</svg>