<?xml version="1.0" encoding="UTF-8"?>
<svg width="24px" height="24px" viewBox="0 0 24 24" version="1.1" xmlns="http://www.w3.org/2000/svg" xmlns:xlink="http://www.w3.org/1999/xlink">
    <!-- Generator: Sketch 46.2 (44496) - http://www.bohemiancoding.com/sketch -->
    <title>amenitiy / mileage / dark</title>
    <desc>Created with Sketch.</desc>
    <defs></defs>
    <g id="Icons" stroke="none" stroke-width="1" fill="none" fill-rule="evenodd">
        <g id="amenitiy-/-mileage-/-dark">
            <g id="mileage">
                <polygon id="Shape" points="0 0 24 0 24 24 0 24"></polygon>
                <path d="M12,16 C10.3431458,16 9,14.6568542 9,13 C9,11.88 9.61,10.9 10.5,10.39 L20.21,4.77 L14.68,14.35 C14.18,15.33 13.17,16 12,16 L12,16 Z M12,3 C13.81,3 15.5,3.5 16.97,4.32 L14.87,5.53 C14,5.19 13,5 12,5 C7.581722,5 4,8.581722 4,13 C4,15.21 4.89,17.21 6.34,18.65 L6.35,18.65 C6.74,19.04 6.74,19.67 6.35,20.06 C5.96,20.45 5.32,20.45 4.93,20.07 L4.93,20.07 C3.12,18.26 2,15.76 2,13 C2,7.4771525 6.4771525,3 12,3 L12,3 Z M22,13 C22,15.76 20.88,18.26 19.07,20.07 L19.07,20.07 C18.68,20.45 18.05,20.45 17.66,20.06 C17.27,19.67 17.27,19.04 17.66,18.65 L17.66,18.65 C19.11,17.2 20,15.21 20,13 C20,12 19.81,11 19.46,10.1 L20.67,8 C21.5,9.5 22,11.18 22,13 Z" id="Shape" fill="#001833" fill-rule="nonzero"></path>
            </g>
        </g>
    </g>
</svg>