<?xml version="1.0" encoding="UTF-8"?>
<svg width="24px" height="24px" viewBox="0 0 24 24" version="1.1" xmlns="http://www.w3.org/2000/svg" xmlns:xlink="http://www.w3.org/1999/xlink">
    <!-- Generator: Sketch 46.2 (44496) - http://www.bohemiancoding.com/sketch -->
    <title>amenitiy / restaurant / dark</title>
    <desc>Created with Sketch.</desc>
    <defs></defs>
    <g id="Icons" stroke="none" stroke-width="1" fill="none" fill-rule="evenodd">
        <g id="amenitiy-/-restaurant-/-dark">
            <g id="restaurant">
                <polygon id="Shape" points="0 0 24 0 24 24 0 24"></polygon>
                <path d="M11,9 L9,9 L9,2 L7,2 L7,9 L5,9 L5,2 L3,2 L3,9 C3,11.12 4.66,12.84 6.75,12.97 L6.75,22 L9.25,22 L9.25,12.97 C11.34,12.84 13,11.12 13,9 L13,2 L11,2 L11,9 Z M16,6 L16,14 L18.5,14 L18.5,22 L21,22 L21,2 C18.24,2 16,4.24 16,6 Z" id="Shape" fill="#001833" fill-rule="nonzero"></path>
            </g>
        </g>
    </g>
</svg>