<?xml version="1.0" encoding="UTF-8"?>
<svg width="24px" height="24px" viewBox="0 0 24 24" version="1.1" xmlns="http://www.w3.org/2000/svg" xmlns:xlink="http://www.w3.org/1999/xlink">
    <!-- Generator: Sketch 46.2 (44496) - http://www.bohemiancoding.com/sketch -->
    <title>amenitiy / shuttle / dark</title>
    <desc>Created with Sketch.</desc>
    <defs></defs>
    <g id="Icons" stroke="none" stroke-width="1" fill="none" fill-rule="evenodd">
        <g id="amenitiy-/-shuttle-/-dark">
            <g id="shuttle">
                <polygon id="Shape" points="0 0 24 0 24 24 0 24"></polygon>
                <path d="M17,5 L3,5 C1.9,5 1,5.89 1,7 L1,16 L3,16 C3,17.65 4.34,19 6,19 C7.66,19 9,17.65 9,16 L14.5,16 C14.5,17.65 15.84,19 17.5,19 C19.16,19 20.5,17.65 20.5,16 L23,16 L23,11 L17,5 Z M3,11 L3,7 L7,7 L7,11 L3,11 Z M6,17.5 C5.17,17.5 4.5,16.83 4.5,16 C4.5,15.17 5.17,14.5 6,14.5 C6.83,14.5 7.5,15.17 7.5,16 C7.5,16.83 6.83,17.5 6,17.5 Z M13,11 L9,11 L9,7 L13,7 L13,11 Z M17.5,17.5 C16.67,17.5 16,16.83 16,16 C16,15.17 16.67,14.5 17.5,14.5 C18.33,14.5 19,15.17 19,16 C19,16.83 18.33,17.5 17.5,17.5 Z M15,11 L15,7 L16,7 L20,11 L15,11 Z" id="Shape" fill="#001833" fill-rule="nonzero"></path>
            </g>
        </g>
    </g>
</svg>