<?xml version="1.0" encoding="UTF-8"?>
<svg width="24px" height="24px" viewBox="0 0 24 24" version="1.1" xmlns="http://www.w3.org/2000/svg" xmlns:xlink="http://www.w3.org/1999/xlink">
    <!-- Generator: Sketch 46.2 (44496) - http://www.bohemiancoding.com/sketch -->
    <title>amenitiy / spa / dark</title>
    <desc>Created with Sketch.</desc>
    <defs></defs>
    <g id="Icons" stroke="none" stroke-width="1" fill="none" fill-rule="evenodd">
        <g id="amenitiy-/-spa-/-dark">
            <g id="spa">
                <path d="M0,0 L24,0 L24,24 L0,24 L0,0 Z M13.97,21.49 C13.34,21.72 12.68,21.89 12,22 C12.68,21.88 13.33,21.71 13.97,21.49 Z M12,22 C11.32,21.88 10.67,21.71 10.03,21.49 C10.67,21.71 11.32,21.88 12,22 Z" id="Shape"></path>
                <path d="M15.49,9.63 C15.31,6.84 14.18,4.12 12.06,2 C9.92,4.14 8.74,6.86 8.51,9.63 C9.79,10.31 10.97,11.19 12,12.26 C13.03,11.2 14.21,10.32 15.49,9.63 L15.49,9.63 Z M8.99,12.28 C8.85,12.18 8.69,12.09 8.54,11.99 C8.69,12.1 8.85,12.18 8.99,12.28 Z M15.41,12.03 C15.28,12.12 15.14,12.19 15.01,12.29 C15.14,12.19 15.28,12.12 15.41,12.03 Z M12,15.45 C9.85,12.17 6.18,10 2,10 C2,15.32 5.36,19.82 10.03,21.49 C10.66,21.72 11.32,21.89 12,22 C12.68,21.88 13.33,21.71 13.97,21.49 C18.64,19.82 22,15.32 22,10 C17.82,10 14.15,12.17 12,15.45 Z M8.55,12 C7.48,11.29 6.3,10.73 5.02,10.39 C6.3,10.73 7.48,11.29 8.55,12 Z M18.98,10.39 C17.69,10.73 16.49,11.3 15.41,12.03 C16.49,11.3 17.69,10.73 18.98,10.39 Z" id="Shape" fill="#001833" fill-rule="nonzero"></path>
            </g>
        </g>
    </g>
</svg>