<?xml version="1.0" encoding="UTF-8"?>
<svg width="14px" height="20px" viewBox="0 0 14 20" version="1.1" xmlns="http://www.w3.org/2000/svg" xmlns:xlink="http://www.w3.org/1999/xlink">
    <!-- Generator: Sketch 47.1 (45422) - http://www.bohemiancoding.com/sketch -->
    <title>Mask</title>
    <desc>Created with Sketch.</desc>
    <defs>
        <path d="M14,11 L14,9 C12.46,9.02 10.91,8.25 9.93,7.17 L8.64,5.74 C8.47,5.55 8.26,5.4 8.03,5.29 C8.02,5.29 8.02,5.28 8.01,5.28 L8,5.28 C7.65,5.08 7.25,4.98 6.81,5.02 C5.76,5.11 5,6.04 5,7.09 L5,13 C5,14.1 5.9,15 7,15 L12,15 L12,20 L14,20 L14,14.5 C14,13.4 13.1,12.5 12,12.5 L9,12.5 L9,9.05 C10.29,10.12 12.25,10.99 14,11 Z M7.83,16 L9.9,16 C9.44,18.28 7.42,20 5,20 C2.24,20 0,17.76 0,15 C0,12.58 1.72,10.56 4,10.1 L4,12.17 C2.84,12.59 2,13.69 2,15 C2,16.66 3.34,18 5,18 C6.31,18 7.42,17.16 7.83,16 Z M7,4 C5.8954305,4 5,3.1045695 5,2 C5,0.8954305 5.8954305,0 7,0 C8.1045695,0 9,0.8954305 9,2 C9,3.1045695 8.1045695,4 7,4 Z" id="path-1"></path>
    </defs>
    <g id="Icons" stroke="none" stroke-width="1" fill="none" fill-rule="evenodd">
        <g id="amenitiy-/-accessible" transform="translate(-5.000000, -2.000000)">
            <g id="accessible">
                <g id="Icon-🎨" transform="translate(5.000000, 2.000000)">
                    <mask id="mask-2" fill="white">
                        <use xlink:href="#path-1"></use>
                    </mask>
                    <use id="Mask" fill="#001833" fill-rule="nonzero" xlink:href="#path-1"></use>
                </g>
            </g>
        </g>
    </g>
</svg>
