<?xml version="1.0" encoding="UTF-8"?>
<svg width="20px" height="19px" viewBox="0 0 20 19" version="1.1" xmlns="http://www.w3.org/2000/svg" xmlns:xlink="http://www.w3.org/1999/xlink">
    <!-- Generator: Sketch 47.1 (45422) - http://www.bohemiancoding.com/sketch -->
    <title>Mask</title>
    <desc>Created with Sketch.</desc>
    <defs>
        <path d="M6.1,10.34 L8.93,7.51 L1.91,0.5 C0.35,2.06 0.35,4.59 1.91,6.16 L6.1,10.34 L6.1,10.34 Z M12.88,8.53 C14.41,9.24 16.56,8.74 18.15,7.15 C20.06,5.24 20.43,2.5 18.96,1.03 C17.5,-0.43 14.76,-0.07 12.84,1.84 C11.25,3.43 10.75,5.58 11.46,7.11 L1.7,16.87 L3.11,18.28 L10,11.41 L16.88,18.29 L18.29,16.88 L11.41,10 L12.88,8.53 Z" id="path-1"></path>
    </defs>
    <g id="Icons" stroke="none" stroke-width="1" fill="none" fill-rule="evenodd">
        <g id="amenitiy-/-all-inclusive" transform="translate(-2.000000, -3.000000)">
            <g id="all-inclusive">
                <g id="Icon-🎨" transform="translate(2.000000, 3.000000)">
                    <mask id="mask-2" fill="white">
                        <use xlink:href="#path-1"></use>
                    </mask>
                    <use id="Mask" fill="#001833" fill-rule="nonzero" xlink:href="#path-1"></use>
                </g>
            </g>
        </g>
    </g>
</svg>