<?xml version="1.0" encoding="UTF-8"?>
<svg width="22px" height="15px" viewBox="0 0 22 15" version="1.1" xmlns="http://www.w3.org/2000/svg" xmlns:xlink="http://www.w3.org/1999/xlink">
    <!-- Generator: Sketch 47.1 (45422) - http://www.bohemiancoding.com/sketch -->
    <title>Mask</title>
    <desc>Created with Sketch.</desc>
    <defs>
        <path d="M6,8 C7.66,8 9,6.66 9,5 C9,3.34 7.66,2 6,2 C4.34,2 3,3.34 3,5 C3,6.66 4.34,8 6,8 Z M18,2 L10,2 L10,9 L2,9 L2,0 L0,0 L0,15 L2,15 L2,12 L20,12 L20,15 L22,15 L22,6 C22,3.79 20.21,2 18,2 Z" id="path-1"></path>
    </defs>
    <g id="Icons" stroke="none" stroke-width="1" fill="none" fill-rule="evenodd">
        <g id="amenitiy-/-bed" transform="translate(-1.000000, -5.000000)">
            <g id="bed">
                <g id="Icon-🎨" transform="translate(1.000000, 5.000000)">
                    <mask id="mask-2" fill="white">
                        <use xlink:href="#path-1"></use>
                    </mask>
                    <use id="Mask" fill="#001833" fill-rule="nonzero" xlink:href="#path-1"></use>
                </g>
            </g>
        </g>
    </g>
</svg>