<?xml version="1.0" encoding="UTF-8"?>
<svg width="18px" height="18px" viewBox="0 0 18 18" version="1.1" xmlns="http://www.w3.org/2000/svg" xmlns:xlink="http://www.w3.org/1999/xlink">
    <!-- Generator: Sketch 47.1 (45422) - http://www.bohemiancoding.com/sketch -->
    <title>Mask</title>
    <desc>Created with Sketch.</desc>
    <defs>
        <path d="M16,0 L0,0 L0,10 C0,12.21 1.79,14 4,14 L10,14 C12.21,14 14,12.21 14,10 L14,7 L16,7 C17.11,7 18,6.1 18,5 L18,2 C18,0.89 17.11,0 16,0 Z M16,5 L14,5 L14,2 L16,2 L16,5 Z M0,16 L16,16 L16,18 L0,18 L0,16 Z" id="path-1"></path>
    </defs>
    <g id="Icons" stroke="none" stroke-width="1" fill="none" fill-rule="evenodd">
        <g id="amenitiy-/-breakfast" transform="translate(-4.000000, -3.000000)">
            <g id="breakfast">
                <g id="Icon-🎨" transform="translate(4.000000, 3.000000)">
                    <mask id="mask-2" fill="white">
                        <use xlink:href="#path-1"></use>
                    </mask>
                    <use id="Mask" fill="#001833" fill-rule="nonzero" xlink:href="#path-1"></use>
                </g>
            </g>
        </g>
    </g>
</svg>