<?xml version="1.0" encoding="UTF-8"?>
<svg width="20px" height="18px" viewBox="0 0 20 18" version="1.1" xmlns="http://www.w3.org/2000/svg" xmlns:xlink="http://www.w3.org/1999/xlink">
    <!-- Generator: Sketch 47.1 (45422) - http://www.bohemiancoding.com/sketch -->
    <title>Mask</title>
    <desc>Created with Sketch.</desc>
    <defs>
        <path d="M8,13 L8,12 L1.01,12 L1,16 C1,17.11 1.89,18 3,18 L17,18 C18.11,18 19,17.11 19,16 L19,12 L12,12 L12,13 L8,13 Z M18,4 L13.99,4 L13.99,2 L11.99,0 L7.99,0 L5.99,2 L5.99,4 L2,4 C0.9,4 0,4.9 0,6 L0,9 C0,10.11 0.89,11 2,11 L8,11 L8,9 L12,9 L12,11 L18,11 C19.1,11 20,10.1 20,9 L20,6 C20,4.9 19.1,4 18,4 Z M12,4 L8,4 L8,2 L12,2 L12,4 Z" id="path-1"></path>
    </defs>
    <g id="Icons" stroke="none" stroke-width="1" fill="none" fill-rule="evenodd">
        <g id="amenitiy-/-business" transform="translate(-2.000000, -3.000000)">
            <g id="business">
                <g id="Icon-🎨" transform="translate(2.000000, 3.000000)">
                    <mask id="mask-2" fill="white">
                        <use xlink:href="#path-1"></use>
                    </mask>
                    <use id="Mask" fill="#001833" fill-rule="nonzero" xlink:href="#path-1"></use>
                </g>
            </g>
        </g>
    </g>
</svg>