<?xml version="1.0" encoding="UTF-8"?>
<svg width="20px" height="14px" viewBox="0 0 20 14" version="1.1" xmlns="http://www.w3.org/2000/svg" xmlns:xlink="http://www.w3.org/1999/xlink">
    <!-- Generator: Sketch 47.1 (45422) - http://www.bohemiancoding.com/sketch -->
    <title>Mask</title>
    <desc>Created with Sketch.</desc>
    <defs>
        <path d="M16.125,5.03333333 C15.5583333,2.15833333 13.0333333,0 10,0 C7.59166667,0 5.5,1.36666667 4.45833333,3.36666667 C1.95,3.63333333 0,5.75833333 0,8.33333333 C0,11.0916667 2.24166667,13.3333333 5,13.3333333 L15.8333333,13.3333333 C18.1333333,13.3333333 20,11.4666667 20,9.16666667 C20,6.96666667 18.2916667,5.18333333 16.125,5.03333333 Z M15.8333333,11.6666667 L5,11.6666667 C3.15833333,11.6666667 1.66666667,10.175 1.66666667,8.33333333 C1.66666667,6.49166667 3.15833333,5 5,5 L5.59166667,5 C6.14166667,3.075 7.9,1.66666667 10,1.66666667 C12.5333333,1.66666667 14.5833333,3.71666667 14.5833333,6.25 L14.5833333,6.66666667 L15.8333333,6.66666667 C17.2166667,6.66666667 18.3333333,7.78333333 18.3333333,9.16666667 C18.3333333,10.55 17.2166667,11.6666667 15.8333333,11.6666667 Z" id="path-1"></path>
    </defs>
    <g id="Icons" stroke="none" stroke-width="1" fill="none" fill-rule="evenodd">
        <g id="extra-/-cloud" transform="translate(-2.000000, -5.000000)">
            <g id="cloud">
                <g id="Icon-🎨" transform="translate(2.000000, 5.000000)">
                    <mask id="mask-2" fill="white">
                        <use xlink:href="#path-1"></use>
                    </mask>
                    <use id="Mask" fill="#001833" fill-rule="nonzero" xlink:href="#path-1"></use>
                </g>
            </g>
        </g>
    </g>
</svg>