<?xml version="1.0" encoding="UTF-8"?>
<svg width="22px" height="16px" viewBox="0 0 22 16" version="1.1" xmlns="http://www.w3.org/2000/svg" xmlns:xlink="http://www.w3.org/1999/xlink">
    <!-- Generator: Sketch 47.1 (45422) - http://www.bohemiancoding.com/sketch -->
    <title>Mask</title>
    <desc>Created with Sketch.</desc>
    <defs>
        <path d="M3.66666667,2.375 L20.1666667,2.375 L20.1666667,0.5 L3.66666667,0.5 C2.65833333,0.5 1.83333333,1.34375 1.83333333,2.375 L1.83333333,12.6875 L0,12.6875 L0,15.5 L12.8333333,15.5 L12.8333333,12.6875 L3.66666667,12.6875 L3.66666667,2.375 Z M21.0833333,4.25 L15.5833333,4.25 C15.0791667,4.25 14.6666667,4.671875 14.6666667,5.1875 L14.6666667,14.5625 C14.6666667,15.078125 15.0791667,15.5 15.5833333,15.5 L21.0833333,15.5 C21.5875,15.5 22,15.078125 22,14.5625 L22,5.1875 C22,4.671875 21.5875,4.25 21.0833333,4.25 Z M20.1666667,12.6875 L16.5,12.6875 L16.5,6.125 L20.1666667,6.125 L20.1666667,12.6875 Z" id="path-1"></path>
    </defs>
    <g id="Icons" stroke="none" stroke-width="1" fill="none" fill-rule="evenodd">
        <g id="extra-/-devices" transform="translate(-1.000000, -4.000000)">
            <g id="devices">
                <g id="Icon-🎨" transform="translate(1.000000, 4.000000)">
                    <mask id="mask-2" fill="white">
                        <use xlink:href="#path-1"></use>
                    </mask>
                    <use id="Mask" fill="#001833" fill-rule="nonzero" xlink:href="#path-1"></use>
                </g>
            </g>
        </g>
    </g>
</svg>