<?xml version="1.0" encoding="UTF-8"?>
<svg width="16px" height="20px" viewBox="0 0 16 20" version="1.1" xmlns="http://www.w3.org/2000/svg" xmlns:xlink="http://www.w3.org/1999/xlink">
    <!-- Generator: Sketch 47.1 (45422) - http://www.bohemiancoding.com/sketch -->
    <title>Mask</title>
    <desc>Created with Sketch.</desc>
    <defs>
        <path d="M3.59,4.41 C2.81,3.63 2.81,2.36 3.59,1.58 C4.37,0.8 5.64,0.8 6.42,1.58 C7.2,2.36 7.2,3.63 6.42,4.41 C5.63,5.2 4.37,5.2 3.59,4.41 Z M2,15 L2,6 L0,6 L0,15 C0,17.76 2.24,20 5,20 L11,20 L11,18 L5,18 C3.34,18 2,16.66 2,15 Z M16,19.07 L10.93,14 L7.5,14 L7.5,10.32 C8.9,11.47 11.1,12.48 13,12.48 L13,10.32 C11.34,10.34 9.39,9.45 8.33,8.28 L6.93,6.73 C6.74,6.52 6.5,6.35 6.24,6.23 C5.95,6.09 5.62,6 5.28,6 L5.25,6 C4.01,6 3,7.01 3,8.25 L3,14 C3,15.66 4.34,17 6,17 L11.07,17 L14.57,20.5 L16,19.07 Z" id="path-1"></path>
    </defs>
    <g id="Icons" stroke="none" stroke-width="1" fill="none" fill-rule="evenodd">
        <g id="extra-/-economy-seat" transform="translate(-4.000000, -2.000000)">
            <g id="economy-seat">
                <g id="Icon-🎨" transform="translate(4.000000, 1.000000)">
                    <mask id="mask-2" fill="white">
                        <use xlink:href="#path-1"></use>
                    </mask>
                    <use id="Mask" fill="#001833" fill-rule="nonzero" xlink:href="#path-1"></use>
                </g>
            </g>
        </g>
    </g>
</svg>