<?xml version="1.0" encoding="UTF-8"?>
<svg width="20px" height="14px" viewBox="0 0 20 14" version="1.1" xmlns="http://www.w3.org/2000/svg" xmlns:xlink="http://www.w3.org/1999/xlink">
    <!-- Generator: Sketch 47.1 (45422) - http://www.bohemiancoding.com/sketch -->
    <title>Mask</title>
    <desc>Created with Sketch.</desc>
    <defs>
        <path d="M14.5,7 C15.88,7 16.99,5.88 16.99,4.5 C16.99,3.12 15.88,2 14.5,2 C13.12,2 12,3.12 12,4.5 C12,5.88 13.12,7 14.5,7 Z M7,6 C8.66,6 9.99,4.66 9.99,3 C9.99,1.34 8.66,0 7,0 C5.34,0 4,1.34 4,3 C4,4.66 5.34,6 7,6 Z M14.5,9 C12.67,9 9,9.92 9,11.75 L9,14 L20,14 L20,11.75 C20,9.92 16.33,9 14.5,9 Z M7,8 C4.67,8 0,9.17 0,11.5 L0,14 L7,14 L7,11.75 C7,10.9 7.33,9.41 9.37,8.28 C8.5,8.1 7.66,8 7,8 Z" id="path-1"></path>
    </defs>
    <g id="Icons" stroke="none" stroke-width="1" fill="none" fill-rule="evenodd">
        <g id="search-/-guests" transform="translate(-2.000000, -5.000000)">
            <g id="guests">
                <g id="Icon-🎨" transform="translate(2.000000, 5.000000)">
                    <mask id="mask-2" fill="white">
                        <use xlink:href="#path-1"></use>
                    </mask>
                    <use id="Mask" fill="#001833" fill-rule="nonzero" xlink:href="#path-1"></use>
                </g>
            </g>
        </g>
    </g>
</svg>