<?xml version="1.0" encoding="UTF-8"?>
<svg width="20px" height="20px" viewBox="0 0 20 20" version="1.1" xmlns="http://www.w3.org/2000/svg" xmlns:xlink="http://www.w3.org/1999/xlink">
    <!-- Generator: Sketch 47.1 (45422) - http://www.bohemiancoding.com/sketch -->
    <title>Mask</title>
    <desc>Created with Sketch.</desc>
    <defs>
        <path d="M9,15 L11,15 L11,9 L9,9 L9,15 Z M10,0 C4.48,0 0,4.48 0,10 C0,15.52 4.48,20 10,20 C15.52,20 20,15.52 20,10 C20,4.48 15.52,0 10,0 Z M10,18 C5.59,18 2,14.41 2,10 C2,5.59 5.59,2 10,2 C14.41,2 18,5.59 18,10 C18,14.41 14.41,18 10,18 Z M9,7 L11,7 L11,5 L9,5 L9,7 Z" id="path-1"></path>
    </defs>
    <g id="Icons" stroke="none" stroke-width="1" fill="none" fill-rule="evenodd">
        <g id="alert-/-information-outline" transform="translate(-2.000000, -2.000000)">
            <g id="information-outline">
                <g id="Icon-🎨" transform="translate(2.000000, 2.000000)">
                    <mask id="mask-2" fill="white">
                        <use xlink:href="#path-1"></use>
                    </mask>
                    <use id="Mask" fill="#001833" fill-rule="nonzero" xlink:href="#path-1"></use>
                </g>
            </g>
        </g>
    </g>
</svg>