<?xml version="1.0" encoding="UTF-8"?>
<svg width="18px" height="10px" viewBox="0 0 18 10" version="1.1" xmlns="http://www.w3.org/2000/svg" xmlns:xlink="http://www.w3.org/1999/xlink">
    <!-- Generator: Sketch 47.1 (45422) - http://www.bohemiancoding.com/sketch -->
    <title>Mask</title>
    <desc>Created with Sketch.</desc>
    <defs>
        <path d="M0,6 L2,6 L2,4 L0,4 L0,6 Z M0,10 L2,10 L2,8 L0,8 L0,10 Z M0,2 L2,2 L2,0 L0,0 L0,2 Z M4,6 L18,6 L18,4 L4,4 L4,6 Z M4,10 L18,10 L18,8 L4,8 L4,10 Z M4,0 L4,2 L18,2 L18,0 L4,0 Z" id="path-1"></path>
    </defs>
    <g id="Icons" stroke="none" stroke-width="1" fill="none" fill-rule="evenodd">
        <g id="extra-/-list" transform="translate(-3.000000, -7.000000)">
            <g id="list">
                <g id="Icon-🎨" transform="translate(3.000000, 7.000000)">
                    <mask id="mask-2" fill="white">
                        <use xlink:href="#path-1"></use>
                    </mask>
                    <use id="Mask" fill="#001833" fill-rule="nonzero" xlink:href="#path-1"></use>
                </g>
            </g>
        </g>
    </g>
</svg>