<?xml version="1.0" encoding="UTF-8"?>
<svg width="20px" height="19px" viewBox="0 0 20 19" version="1.1" xmlns="http://www.w3.org/2000/svg" xmlns:xlink="http://www.w3.org/1999/xlink">
    <!-- Generator: Sketch 47.1 (45422) - http://www.bohemiancoding.com/sketch -->
    <title>Mask</title>
    <desc>Created with Sketch.</desc>
    <defs>
        <path d="M2.5,9 C1.11928813,9 0,7.88071187 0,6.5 C0,5.11928813 1.11928813,4 2.5,4 C3.88071187,4 5,5.11928813 5,6.5 C5,7.88071187 3.88071187,9 2.5,9 Z M7,5 C5.61928813,5 4.5,3.88071187 4.5,2.5 C4.5,1.11928813 5.61928813,0 7,0 C8.38071187,0 9.5,1.11928813 9.5,2.5 C9.5,3.88071187 8.38071187,5 7,5 Z M13,5 C11.6192881,5 10.5,3.88071187 10.5,2.5 C10.5,1.11928813 11.6192881,0 13,0 C14.3807119,0 15.5,1.11928813 15.5,2.5 C15.5,3.88071187 14.3807119,5 13,5 Z M17.5,9 C16.1192881,9 15,7.88071187 15,6.5 C15,5.11928813 16.1192881,4 17.5,4 C18.8807119,4 20,5.11928813 20,6.5 C20,7.88071187 18.8807119,9 17.5,9 Z M15.34,11.86 L15.34,11.86 C16.65,13.17 18.26,14.62 17.95,16.66 C17.66,17.67 16.93,18.69 15.62,18.98 C14.89,19.12 12.56,18.54 10.08,18.54 L9.9,18.54 C7.42,18.54 5.09,19.13 4.36,18.98 C3.05,18.69 2.32,17.68 2.03,16.66 C1.73,14.63 3.34,13.18 4.65,11.87 C5.53,10.85 6.26,9.98 7.13,8.96 C7.6,8.42 8.18,7.88 8.88,7.64 C8.99,7.6 9.1,7.57 9.21,7.55 C9.47,7.5 9.74,7.5 10,7.5 C10.26,7.5 10.53,7.5 10.78,7.54 C10.89,7.56 11,7.59 11.11,7.63 C11.81,7.87 12.4,8.41 12.86,8.95 C13.74,9.97 14.47,10.84 15.34,11.86 Z" id="path-1"></path>
    </defs>
    <g id="Icons" stroke="none" stroke-width="1" fill="none" fill-rule="evenodd">
        <g id="amenitiy-/-pets" transform="translate(-2.000000, -3.000000)">
            <g id="pets">
                <g id="Icon-🎨" transform="translate(2.000000, 3.000000)">
                    <mask id="mask-2" fill="white">
                        <use xlink:href="#path-1"></use>
                    </mask>
                    <use id="Mask" fill="#001833" fill-rule="nonzero" xlink:href="#path-1"></use>
                </g>
            </g>
        </g>
    </g>
</svg>