<?xml version="1.0" encoding="UTF-8"?>
<svg width="18px" height="16px" viewBox="0 0 18 16" version="1.1" xmlns="http://www.w3.org/2000/svg" xmlns:xlink="http://www.w3.org/1999/xlink">
    <!-- Generator: Sketch 47.1 (45422) - http://www.bohemiancoding.com/sketch -->
    <title>Mask</title>
    <desc>Created with Sketch.</desc>
    <defs>
        <path d="M15.92,1.01 C15.72,0.42 15.16,0 14.5,0 L3.5,0 C2.84,0 2.29,0.42 2.08,1.01 L0,7 L0,15 C0,15.55 0.45,16 1,16 L2,16 C2.55,16 3,15.55 3,15 L3,14 L15,14 L15,15 C15,15.55 15.45,16 16,16 L17,16 C17.55,16 18,15.55 18,15 L18,7 L15.92,1.01 Z M3.5,11 C2.67,11 2,10.33 2,9.5 C2,8.67 2.67,8 3.5,8 C4.33,8 5,8.67 5,9.5 C5,10.33 4.33,11 3.5,11 Z M14.5,11 C13.67,11 13,10.33 13,9.5 C13,8.67 13.67,8 14.5,8 C15.33,8 16,8.67 16,9.5 C16,10.33 15.33,11 14.5,11 Z M2,6 L3.5,1.5 L14.5,1.5 L16,6 L2,6 Z" id="path-1"></path>
    </defs>
    <g id="Icons" stroke="none" stroke-width="1" fill="none" fill-rule="evenodd">
        <g id="product-/-rc" transform="translate(-3.000000, -5.000000)">
            <g id="rc">
                <g id="Icon-🎨" transform="translate(3.000000, 5.000000)">
                    <mask id="mask-2" fill="white">
                        <use xlink:href="#path-1"></use>
                    </mask>
                    <use id="Mask" fill="#001833" fill-rule="nonzero" xlink:href="#path-1"></use>
                </g>
            </g>
        </g>
    </g>
</svg>