<?xml version="1.0" encoding="UTF-8"?>
<svg width="22px" height="14px" viewBox="0 0 22 14" version="1.1" xmlns="http://www.w3.org/2000/svg" xmlns:xlink="http://www.w3.org/1999/xlink">
    <!-- Generator: Sketch 47.1 (45422) - http://www.bohemiancoding.com/sketch -->
    <title>Mask</title>
    <desc>Created with Sketch.</desc>
    <defs>
        <path d="M16,0 L2,0 C0.9,0 0,0.89 0,2 L0,11 L2,11 C2,12.65 3.34,14 5,14 C6.66,14 8,12.65 8,11 L13.5,11 C13.5,12.65 14.84,14 16.5,14 C18.16,14 19.5,12.65 19.5,11 L22,11 L22,6 L16,0 Z M2,6 L2,2 L6,2 L6,6 L2,6 Z M5,12.5 C4.17,12.5 3.5,11.83 3.5,11 C3.5,10.17 4.17,9.5 5,9.5 C5.83,9.5 6.5,10.17 6.5,11 C6.5,11.83 5.83,12.5 5,12.5 Z M12,6 L8,6 L8,2 L12,2 L12,6 Z M16.5,12.5 C15.67,12.5 15,11.83 15,11 C15,10.17 15.67,9.5 16.5,9.5 C17.33,9.5 18,10.17 18,11 C18,11.83 17.33,12.5 16.5,12.5 Z M14,6 L14,2 L15,2 L19,6 L14,6 Z" id="path-1"></path>
    </defs>
    <g id="Icons" stroke="none" stroke-width="1" fill="none" fill-rule="evenodd">
        <g id="amenitiy-/-shuttle" transform="translate(-1.000000, -5.000000)">
            <g id="shuttle">
                <g id="Icon-🎨" transform="translate(1.000000, 5.000000)">
                    <mask id="mask-2" fill="white">
                        <use xlink:href="#path-1"></use>
                    </mask>
                    <use id="Mask" fill="#001833" fill-rule="nonzero" xlink:href="#path-1"></use>
                </g>
            </g>
        </g>
    </g>
</svg>