<?xml version="1.0" encoding="UTF-8"?>
<svg width="20px" height="21px" viewBox="0 0 20 21" version="1.1" xmlns="http://www.w3.org/2000/svg" xmlns:xlink="http://www.w3.org/1999/xlink">
    <!-- Generator: Sketch 47.1 (45422) - http://www.bohemiancoding.com/sketch -->
    <title>Mask</title>
    <desc>Created with Sketch.</desc>
    <defs>
        <path d="M0,4 L6.99,11 L0,11 L0,14 L9.99,14 L16.99,21 L18.25,19.75 L1.25,2.75 L0,4 Z M18.5,11 L20,11 L20,14 L18.5,14 L18.5,11 Z M16,11 L17.5,11 L17.5,14 L16,14 L16,11 Z M16.85,2.88 C17.47,2.27 17.85,1.43 17.85,0.5 L16.35,0.5 C16.35,1.52 15.52,2.35 14.5,2.35 L14.5,3.85 C16.74,3.85 18.5,5.68 18.5,7.92 L18.5,10 L20,10 L20,7.92 C20,5.69 18.72,3.77 16.85,2.88 Z M12.5,6.7 L14.03,6.7 C15.08,6.7 16,7.44 16,8.75 L16,10 L17.5,10 L17.5,8.41 C17.5,6.61 15.9,5.25 14.03,5.25 L12.5,5.25 C11.48,5.25 10.65,4.27 10.65,3.25 C10.65,2.23 11.48,1.5 12.5,1.5 L12.5,0 C10.65,0 9.15,1.5 9.15,3.35 C9.15,5.2 10.65,6.7 12.5,6.7 Z M15,13.93 L15,11 L12.07,11 L15,13.93 Z" id="path-1"></path>
    </defs>
    <g id="Icons" stroke="none" stroke-width="1" fill="none" fill-rule="evenodd">
        <g id="amenitiy-/-smoking" transform="translate(-2.000000, -2.000000)">
            <g id="smoking">
                <g id="Icon-🎨" transform="translate(2.000000, 2.000000)">
                    <mask id="mask-2" fill="white">
                        <use xlink:href="#path-1"></use>
                    </mask>
                    <use id="Mask" fill="#001833" fill-rule="nonzero" xlink:href="#path-1"></use>
                </g>
            </g>
        </g>
    </g>
</svg>