<?xml version="1.0" encoding="UTF-8"?>
<svg width="20px" height="20px" viewBox="0 0 20 20" version="1.1" xmlns="http://www.w3.org/2000/svg" xmlns:xlink="http://www.w3.org/1999/xlink">
    <!-- Generator: Sketch 47.1 (45422) - http://www.bohemiancoding.com/sketch -->
    <title>Mask</title>
    <desc>Created with Sketch.</desc>
    <defs>
        <path d="M13.49,7.63 C13.31,4.84 12.18,2.12 10.06,0 C7.92,2.14 6.74,4.86 6.51,7.63 C7.79,8.31 8.97,9.19 10,10.26 C11.03,9.2 12.21,8.32 13.49,7.63 L13.49,7.63 Z M6.99,10.28 C6.85,10.18 6.69,10.09 6.54,9.99 C6.69,10.1 6.85,10.18 6.99,10.28 Z M13.41,10.03 C13.28,10.12 13.14,10.19 13.01,10.29 C13.14,10.19 13.28,10.12 13.41,10.03 Z M10,13.45 C7.85,10.17 4.18,8 0,8 C0,13.32 3.36,17.82 8.03,19.49 C8.66,19.72 9.32,19.89 10,20 C10.68,19.88 11.33,19.71 11.97,19.49 C16.64,17.82 20,13.32 20,8 C15.82,8 12.15,10.17 10,13.45 Z M6.55,10 C5.48,9.29 4.3,8.73 3.02,8.39 C4.3,8.73 5.48,9.29 6.55,10 Z M16.98,8.39 C15.69,8.73 14.49,9.3 13.41,10.03 C14.49,9.3 15.69,8.73 16.98,8.39 Z" id="path-1"></path>
    </defs>
    <g id="Icons" stroke="none" stroke-width="1" fill="none" fill-rule="evenodd">
        <g id="amenitiy-/-spa" transform="translate(-2.000000, -2.000000)">
            <g id="spa">
                <g id="Icon-🎨" transform="translate(2.000000, 2.000000)">
                    <mask id="mask-2" fill="white">
                        <use xlink:href="#path-1"></use>
                    </mask>
                    <use id="Mask" fill="#001833" fill-rule="nonzero" xlink:href="#path-1"></use>
                </g>
            </g>
        </g>
    </g>
</svg>