<?xml version="1.0" encoding="UTF-8"?>
<svg width="24px" height="24px" viewBox="0 0 24 24" version="1.1" xmlns="http://www.w3.org/2000/svg" xmlns:xlink="http://www.w3.org/1999/xlink">
    <!-- Generator: Sketch 46.2 (44496) - http://www.bohemiancoding.com/sketch -->
    <title>search / rooms / dark</title>
    <desc>Created with Sketch.</desc>
    <defs></defs>
    <g id="Icons" stroke="none" stroke-width="1" fill="none" fill-rule="evenodd">
        <g id="search-/-rooms-/-dark">
            <g id="rooms">
                <polygon id="Shape" points="0 0 24 0 24 24 0 24"></polygon>
                <path d="M12.5909091,10.6363636 C11.8454545,8.51818182 9.82727273,7 7.45454545,7 C4.44545455,7 2,9.44545455 2,12.4545455 C2,15.4636364 4.44545455,17.9090909 7.45454545,17.9090909 C9.82727273,17.9090909 11.8454545,16.3909091 12.5909091,14.2727273 L16.5454545,14.2727273 L16.5454545,17.9090909 L20.1818182,17.9090909 L20.1818182,14.2727273 L22,14.2727273 L22,10.6363636 L12.5909091,10.6363636 Z M7.45454545,14.2727273 C6.45454545,14.2727273 5.63636364,13.4545455 5.63636364,12.4545455 C5.63636364,11.4545455 6.45454545,10.6363636 7.45454545,10.6363636 C8.45454545,10.6363636 9.27272727,11.4545455 9.27272727,12.4545455 C9.27272727,13.4545455 8.45454545,14.2727273 7.45454545,14.2727273 Z" id="Shape" fill="#001833" fill-rule="nonzero"></path>
            </g>
        </g>
    </g>
</svg>